<?xml version="1.0" encoding="UTF-8"?>
<svg width="16px" height="16px" viewBox="0 0 16 16" version="1.1" xmlns="http://www.w3.org/2000/svg" xmlns:xlink="http://www.w3.org/1999/xlink">
    <!-- Generator: Sketch 50.2 (55047) - http://www.bohemiancoding.com/sketch -->
    <title>icon</title>
    <desc>Created with Sketch.</desc>
    <defs>
        <polygon id="path-1" points="0 0 16 0 16 16 0 16"></polygon>
    </defs>
    <g id="home" stroke="none" stroke-width="1" fill="none" fill-rule="evenodd">
        <g id="Desktop-HD" transform="translate(-1259.000000, -40.000000)">
            <g id="hero">
                <g id="nav1" transform="translate(936.000000, 32.000000)">
                    <g id="icon" transform="translate(323.000000, 8.000000)">
                        <mask id="mask-2" fill="white">
                            <use xlink:href="#path-1"></use>
                        </mask>
                        <g id="Clip-2"></g>
                        <path d="M10.9613827,8.11118987 C10.0679506,9.64283544 8.1257284,10.1435949 6.63190123,9.22744304 C5.13817284,8.31139241 4.64967901,6.32010127 5.54320988,4.78835443 C6.43664198,3.25670886 8.3788642,2.75594937 9.87269136,3.67210127 C11.3664198,4.58825316 11.8548148,6.5795443 10.9613827,8.11118987 M11.9556543,8.72091139 C10.833284,10.6450633 8.51022222,11.3777215 6.55476543,10.5168608 L4.70587654,13.6863797 C4.54162963,13.9678987 4.18587654,14.0595443 3.91130864,13.8911392 C3.63674074,13.7228354 3.54725926,13.3580759 3.71150617,13.076557 L5.56049383,9.90703797 C3.8957037,8.5478481 3.42637037,6.10278481 4.54883951,4.17863291 C5.77214815,2.08151899 8.42202469,1.39827848 10.467358,2.65265823 C12.5126914,3.90683544 13.1790617,6.62379747 11.9556543,8.72091139 M14.0246914,0 L1.97530864,0 C0.884345679,0 0,0.906734177 0,2.02531646 L0,13.9746835 C0,15.0932658 0.884345679,16 1.97530864,16 L14.0246914,16 C15.1156543,16 16,15.0932658 16,13.9746835 L16,2.02531646 C16,0.906734177 15.1156543,0 14.0246914,0" id="Fill-1" fill="#FFFFFF" mask="url(#mask-2)"></path>
                    </g>
                </g>
            </g>
        </g>
    </g>
</svg>